<?xml version="1.0" encoding="UTF-8" standalone="no"?>
<!DOCTYPE svg PUBLIC "-//W3C//DTD SVG 1.1//EN" "http://www.w3.org/Graphics/SVG/1.1/DTD/svg11.dtd">
<svg width="100%" height="100%" viewBox="0 0 1920 1080" version="1.1" xmlns="http://www.w3.org/2000/svg" xmlns:xlink="http://www.w3.org/1999/xlink" xml:space="preserve" xmlns:serif="http://www.serif.com/" style="fill-rule:evenodd;clip-rule:evenodd;stroke-linejoin:round;stroke-miterlimit:2;">
    <g id="Layer-1" serif:id="Layer 1">
        <g transform="matrix(-0.700026,0.714117,0.714117,0.700026,139.64,315.48)">
            <path d="M-121.669,-51.109L21.469,-51.109" style="fill:none;fill-rule:nonzero;"/>
        </g>
        <g transform="matrix(1,0,0,1,88.1138,185.112)">
            <path d="M0,116.922C-1.768,116.922 -3.537,116.256 -4.9,114.921C-7.661,112.214 -7.705,107.783 -4.999,105.022L95.201,2.805C97.907,0.044 102.338,0 105.101,2.706C107.861,5.413 107.905,9.844 105.199,12.606L5,114.822C3.628,116.221 1.815,116.922 0,116.922" style="fill:rgb(0,235,234);fill-rule:nonzero;"/>
        </g>
        <g transform="matrix(-0.700023,0.71412,0.71412,0.700023,276.362,155.857)">
            <path d="M-88.092,-37.005L15.544,-37.005" style="fill:none;fill-rule:nonzero;"/>
        </g>
        <g transform="matrix(1,0,0,1,239.055,59.3397)">
            <path d="M0,88.714C-1.768,88.714 -3.537,88.048 -4.9,86.713C-7.661,84.006 -7.705,79.575 -4.999,76.814L67.549,2.805C70.256,0.045 74.687,0 77.449,2.706C80.209,5.413 80.253,9.844 77.547,12.606L5,86.614C3.628,88.012 1.815,88.714 0,88.714" style="fill:rgb(0,235,234);fill-rule:nonzero;"/>
        </g>
        <g transform="matrix(1,0,0,1,214.128,492.761)">
            <path d="M0,155.979C-2.021,155.979 -4.043,155.218 -5.6,153.692C-8.755,150.599 -8.805,145.534 -5.712,142.378L130.714,3.206C133.807,0.051 138.873,0 142.027,3.093C145.182,6.186 145.232,11.251 142.14,14.406L5.713,153.58C4.147,155.177 2.074,155.979 0,155.979" style="fill:rgb(253,203,1);fill-rule:nonzero;"/>
        </g>
        <g transform="matrix(1,0,0,1,1799.62,750.266)">
            <path d="M0,58.494C-2.021,58.494 -4.042,57.733 -5.6,56.207C-8.754,53.114 -8.805,48.049 -5.712,44.893L35.153,3.205C38.246,0.051 43.312,0 46.467,3.093C49.621,6.185 49.672,11.251 46.579,14.406L5.714,56.095C4.147,57.692 2.074,58.494 0,58.494" style="fill:rgb(246,2,97);fill-rule:nonzero;"/>
        </g>
        <g transform="matrix(1,0,0,1,1214.1,172.233)">
            <path d="M0,116.87C-2.021,116.87 -4.042,116.109 -5.6,114.583C-8.755,111.49 -8.805,106.425 -5.712,103.27L92.377,3.206C95.47,0.052 100.535,0 103.69,3.094C106.846,6.186 106.896,11.251 103.803,14.407L5.714,114.47C4.147,116.068 2.074,116.87 0,116.87" style="fill:rgb(246,2,97);fill-rule:nonzero;"/>
        </g>
        <g transform="matrix(1,0,0,1,1170.7,41.2636)">
            <path d="M0,147.776C-2.021,147.776 -4.042,147.015 -5.6,145.489C-8.755,142.396 -8.805,137.331 -5.712,134.176L122.675,3.206C125.768,0.051 130.833,0 133.988,3.093C137.144,6.186 137.193,11.251 134.101,14.406L5.714,145.376C4.147,146.974 2.074,147.776 0,147.776" style="fill:rgb(253,203,1);fill-rule:nonzero;"/>
        </g>
        <g transform="matrix(1,0,0,1,1356.96,174.066)">
            <path d="M0,139.147C-2.021,139.147 -4.042,138.386 -5.6,136.86C-8.755,133.767 -8.805,128.702 -5.712,125.547L114.215,3.205C117.308,0.051 122.372,0 125.528,3.092C128.683,6.185 128.733,11.25 125.641,14.405L5.714,136.747C4.147,138.345 2.074,139.147 0,139.147" style="fill:rgb(0,235,234);fill-rule:nonzero;"/>
        </g>
        <g transform="matrix(1,0,0,1,1611.53,41.7157)">
            <path d="M0,244.795C-2.021,244.795 -4.042,244.034 -5.6,242.508C-8.755,239.415 -8.805,234.35 -5.712,231.195L217.777,3.206C220.87,0.051 225.935,0 229.091,3.093C232.245,6.186 232.296,11.251 229.203,14.406L5.714,242.395C4.147,243.993 2.074,244.795 0,244.795" style="fill:rgb(253,203,1);fill-rule:nonzero;"/>
        </g>
        <g transform="matrix(1,0,0,1,26.4692,402.72)">
            <path d="M0,113.785C-2.021,113.785 -4.042,113.024 -5.6,111.498C-8.755,108.405 -8.805,103.34 -5.712,100.185L89.354,3.205C92.447,0.049 97.512,0 100.667,3.092C103.822,6.185 103.873,11.25 100.78,14.405L5.713,111.385C4.147,112.983 2.074,113.785 0,113.785" style="fill:rgb(253,203,1);fill-rule:nonzero;"/>
        </g>
        <g transform="matrix(1,0,0,1,178.298,271.71)">
            <path d="M0,89.909C-2.021,89.909 -4.042,89.148 -5.6,87.622C-8.755,84.529 -8.805,79.464 -5.712,76.309L65.948,3.206C69.041,0.052 74.105,0 77.261,3.093C80.416,6.186 80.466,11.251 77.374,14.406L5.713,87.509C4.147,89.107 2.074,89.909 0,89.909" style="fill:rgb(253,203,1);fill-rule:nonzero;"/>
        </g>
        <g transform="matrix(1,0,0,1,989.521,749.404)">
            <path d="M0,113.424C-2.021,113.424 -4.042,112.663 -5.6,111.137C-8.754,108.044 -8.805,102.979 -5.712,99.823L89,3.205C92.093,0.052 97.158,0 100.313,3.093C103.469,6.186 103.519,11.251 100.426,14.406L5.714,111.025C4.147,112.622 2.074,113.424 0,113.424" style="fill:rgb(253,203,1);fill-rule:nonzero;"/>
        </g>
        <g transform="matrix(1,0,0,1,1127.29,618.036)">
            <path d="M0,104.25C-2.021,104.25 -4.043,103.489 -5.601,101.963C-8.755,98.87 -8.806,93.805 -5.713,90.649L80.008,3.203C83.102,0.048 88.167,0 91.321,3.091C94.476,6.184 94.526,11.249 91.434,14.404L5.713,101.851C4.146,103.448 2.073,104.25 0,104.25" style="fill:rgb(0,235,234);fill-rule:nonzero;"/>
        </g>
        <g transform="matrix(1,0,0,1,1566,697.036)">
            <path d="M0,244.794C-2.021,244.794 -4.042,244.033 -5.6,242.507C-8.755,239.414 -8.805,234.349 -5.712,231.193L217.777,3.205C220.87,0.051 225.936,0 229.091,3.093C232.245,6.186 232.296,11.251 229.203,14.406L5.714,242.395C4.147,243.992 2.074,244.794 0,244.794" style="fill:rgb(0,235,234);fill-rule:nonzero;"/>
        </g>
        <g transform="matrix(1,0,0,1,1214.11,893.764)">
            <path d="M0,129.675C-2.021,129.675 -4.042,128.914 -5.6,127.388C-8.754,124.295 -8.805,119.23 -5.712,116.074L104.929,3.205C108.021,0.052 113.086,0 116.242,3.093C119.396,6.186 119.447,11.251 116.354,14.406L5.714,127.276C4.147,128.873 2.074,129.675 0,129.675" style="fill:rgb(253,203,1);fill-rule:nonzero;"/>
        </g>
        <g transform="matrix(1,0,0,1,1534.81,428.7)">
            <path d="M0,244.794C-2.021,244.794 -4.042,244.033 -5.6,242.507C-8.754,239.414 -8.805,234.349 -5.712,231.193L217.777,3.206C220.87,0.051 225.936,0 229.091,3.093C232.246,6.186 232.296,11.251 229.203,14.406L5.714,242.395C4.147,243.992 2.074,244.794 0,244.794" style="fill:rgb(253,203,1);fill-rule:nonzero;"/>
        </g>
        <g transform="matrix(1,0,0,1,529.238,230.819)">
            <path d="M0,244.794C-2.021,244.794 -4.043,244.033 -5.6,242.507C-8.755,239.414 -8.805,234.349 -5.712,231.194L217.777,3.206C220.87,0.051 225.936,0 229.09,3.093C232.245,6.186 232.295,11.251 229.203,14.406L5.713,242.394C4.147,243.992 2.074,244.794 0,244.794" style="fill:rgb(0,235,234);fill-rule:nonzero;"/>
        </g>
        <g transform="matrix(1,0,0,1,486.567,771.107)">
            <path d="M0,244.794C-2.021,244.794 -4.043,244.033 -5.6,242.507C-8.755,239.414 -8.805,234.349 -5.712,231.193L217.777,3.205C220.87,0.052 225.936,0 229.09,3.093C232.245,6.186 232.295,11.251 229.203,14.406L5.713,242.395C4.147,243.992 2.074,244.794 0,244.794" style="fill:rgb(253,203,1);fill-rule:nonzero;"/>
        </g>
        <g transform="matrix(1,0,0,1,421.845,400.235)">
            <path d="M0,109.332C-2.021,109.332 -4.042,108.571 -5.6,107.045C-8.755,103.952 -8.805,98.887 -5.712,95.732L84.988,3.206C88.081,0.05 93.146,0 96.301,3.093C99.456,6.186 99.506,11.251 96.414,14.406L5.713,106.932C4.147,108.53 2.074,109.332 0,109.332" style="fill:rgb(253,203,1);fill-rule:nonzero;"/>
        </g>
        <g transform="matrix(1,0,0,1,694.041,274.693)">
            <path d="M0,104.814C-2.021,104.814 -4.042,104.053 -5.6,102.527C-8.755,99.434 -8.805,94.369 -5.712,91.214L80.56,3.205C83.653,0.05 88.718,0 91.873,3.092C95.028,6.185 95.079,11.25 91.986,14.405L5.713,102.414C4.147,104.012 2.074,104.814 0,104.814" style="fill:rgb(253,203,1);fill-rule:nonzero;"/>
        </g>
        <g transform="matrix(1,0,0,1,1773.71,155.766)">
            <path d="M0,147.268C-2.021,147.268 -4.042,146.507 -5.6,144.981C-8.755,141.888 -8.805,136.823 -5.712,133.668L122.177,3.205C125.27,0.051 130.334,0 133.49,3.093C136.646,6.185 136.695,11.25 133.603,14.406L5.714,144.868C4.147,146.466 2.074,147.268 0,147.268" style="fill:rgb(253,203,1);fill-rule:nonzero;"/>
        </g>
        <g transform="matrix(1,0,0,1,1820.05,850.896)">
            <path d="M0,90.934C-2.021,90.934 -4.042,90.173 -5.6,88.647C-8.755,85.554 -8.805,80.489 -5.712,77.333L66.953,3.205C70.046,0.052 75.11,0 78.267,3.093C81.422,6.186 81.472,11.251 78.379,14.407L5.714,88.535C4.147,90.132 2.074,90.934 0,90.934" style="fill:rgb(253,203,1);fill-rule:nonzero;"/>
        </g>
        <g transform="matrix(1,0,0,1,1404.79,437.441)">
            <path d="M0,138.351C-2.021,138.351 -4.042,137.59 -5.6,136.064C-8.755,132.971 -8.805,127.906 -5.712,124.75L113.436,3.206C116.528,0.052 121.593,0 124.749,3.093C127.904,6.186 127.954,11.251 124.861,14.406L5.714,135.952C4.147,137.549 2.074,138.351 0,138.351" style="fill:rgb(253,203,1);fill-rule:nonzero;"/>
        </g>
        <g transform="matrix(1,0,0,1,766.032,828.838)">
            <path d="M0,56.207C-2.021,56.207 -4.042,55.446 -5.6,53.92C-8.755,50.827 -8.805,45.762 -5.712,42.606L32.912,3.205C36.005,0.05 41.07,0 44.225,3.093C47.38,6.186 47.43,11.251 44.337,14.406L5.713,53.808C4.147,55.405 2.074,56.207 0,56.207" style="fill:rgb(0,235,234);fill-rule:nonzero;"/>
        </g>
        <g transform="matrix(1,0,0,1,848.213,640.252)">
            <path d="M0,160.957C-2.021,160.957 -4.042,160.196 -5.6,158.67C-8.755,155.577 -8.805,150.512 -5.712,147.356L135.597,3.204C138.691,0.049 143.755,0 146.91,3.092C150.065,6.185 150.115,11.25 147.022,14.405L5.713,158.558C4.147,160.155 2.074,160.957 0,160.957" style="fill:rgb(253,203,1);fill-rule:nonzero;"/>
        </g>
        <g transform="matrix(1,0,0,1,294.372,73.7734)">
            <path d="M0,244.793C-2.021,244.793 -4.042,244.032 -5.6,242.506C-8.755,239.413 -8.805,234.348 -5.712,231.193L217.778,3.205C220.871,0.049 225.936,0 229.091,3.092C232.246,6.185 232.296,11.25 229.204,14.405L5.713,242.393C4.147,243.991 2.074,244.793 0,244.793" style="fill:rgb(253,203,1);fill-rule:nonzero;"/>
        </g>
        <g transform="matrix(1,0,0,1,232.85,925.025)">
            <path d="M0,146.819C-2.021,146.819 -4.042,146.058 -5.6,144.532C-8.755,141.439 -8.805,136.374 -5.712,133.218L121.736,3.205C124.829,0.05 129.894,0 133.049,3.092C136.204,6.185 136.254,11.251 133.162,14.406L5.713,144.42C4.147,146.017 2.074,146.819 0,146.819" style="fill:rgb(253,203,1);fill-rule:nonzero;"/>
        </g>
        <g transform="matrix(1,0,0,1,18.7822,22.4568)">
            <path d="M0,160.301C-1.768,160.301 -3.537,159.635 -4.9,158.3C-7.661,155.593 -7.705,151.161 -4.999,148.401L137.725,2.805C140.431,0.045 144.862,0 147.624,2.706C150.385,5.413 150.429,9.845 147.723,12.606L5,158.201C3.628,159.599 1.815,160.301 0,160.301" style="fill:rgb(246,2,97);fill-rule:nonzero;"/>
        </g>
        <g transform="matrix(1,0,0,1,793.593,455.09)">
            <path d="M0,244.794C-2.021,244.794 -4.042,244.033 -5.6,242.507C-8.755,239.414 -8.805,234.349 -5.712,231.193L217.778,3.206C220.871,0.051 225.935,0 229.091,3.093C232.247,6.186 232.296,11.251 229.204,14.406L5.713,242.395C4.147,243.992 2.074,244.794 0,244.794" style="fill:rgb(246,2,97);fill-rule:nonzero;"/>
        </g>
        <g transform="matrix(1,0,0,1,1151.13,371.915)">
            <path d="M0,244.794C-2.021,244.794 -4.042,244.033 -5.6,242.507C-8.755,239.414 -8.805,234.349 -5.712,231.193L217.778,3.206C220.871,0.051 225.936,0 229.092,3.093C232.247,6.186 232.297,11.251 229.204,14.406L5.714,242.395C4.147,243.992 2.074,244.794 0,244.794" style="fill:rgb(253,203,1);fill-rule:nonzero;"/>
        </g>
        <g transform="matrix(1,0,0,1,1374.62,771.107)">
            <path d="M0,244.794C-2.021,244.794 -4.042,244.033 -5.6,242.507C-8.755,239.414 -8.805,234.349 -5.712,231.193L217.778,3.205C220.871,0.052 225.936,0 229.092,3.093C232.247,6.186 232.297,11.251 229.204,14.406L5.714,242.395C4.147,243.992 2.074,244.794 0,244.794" style="fill:rgb(246,2,97);fill-rule:nonzero;"/>
        </g>
        <g transform="matrix(1,0,0,1,1789.49,447.013)">
            <path d="M0,121.229C-2.021,121.229 -4.042,120.468 -5.6,118.942C-8.754,115.849 -8.805,110.784 -5.712,107.628L96.65,3.207C99.743,0.052 104.808,0 107.964,3.094C111.119,6.187 111.169,11.251 108.076,14.407L5.714,118.83C4.147,120.427 2.074,121.229 0,121.229" style="fill:rgb(246,2,97);fill-rule:nonzero;"/>
        </g>
        <g transform="matrix(1,0,0,1,62.6309,657.114)">
            <path d="M0,244.794C-2.021,244.794 -4.042,244.033 -5.6,242.507C-8.755,239.414 -8.805,234.349 -5.712,231.193L217.778,3.205C220.871,0.051 225.936,0 229.091,3.093C232.246,6.186 232.296,11.251 229.204,14.406L5.713,242.395C4.147,243.992 2.074,244.794 0,244.794" style="fill:rgb(253,203,1);fill-rule:nonzero;"/>
        </g>
        <g transform="matrix(1,0,0,1,987.988,899.991)">
            <path d="M0,151.326C-2.021,151.326 -4.042,150.565 -5.6,149.039C-8.754,145.946 -8.805,140.881 -5.712,137.725L126.155,3.205C129.248,0.052 134.313,0 137.469,3.093C140.623,6.185 140.674,11.251 137.581,14.406L5.714,148.927C4.147,150.524 2.074,151.326 0,151.326" style="fill:rgb(246,2,97);fill-rule:nonzero;"/>
        </g>
        <g transform="matrix(1,0,0,1,23.085,179.568)">
            <path d="M0,244.794C-2.021,244.794 -4.042,244.033 -5.6,242.507C-8.755,239.414 -8.805,234.349 -5.712,231.194L217.778,3.206C220.871,0.05 225.936,0 229.091,3.093C232.246,6.186 232.296,11.251 229.204,14.406L5.713,242.394C4.147,243.992 2.074,244.794 0,244.794" style="fill:rgb(253,203,1);fill-rule:nonzero;"/>
        </g>
        <g transform="matrix(1,0,0,1,1352.62,18.2539)">
            <path d="M0,244.794C-2.021,244.794 -4.042,244.033 -5.6,242.507C-8.755,239.414 -8.805,234.349 -5.712,231.194L217.778,3.206C220.871,0.051 225.936,0 229.092,3.093C232.247,6.186 232.297,11.251 229.204,14.406L5.714,242.394C4.147,243.992 2.074,244.794 0,244.794" style="fill:rgb(253,203,1);fill-rule:nonzero;"/>
        </g>
        <g transform="matrix(1,0,0,1,1454.25,15.4101)">
            <path d="M0,69.816C-2.021,69.816 -4.042,69.055 -5.6,67.529C-8.755,64.436 -8.805,59.371 -5.712,56.216L46.253,3.206C49.346,0.051 54.41,0 57.566,3.093C60.722,6.186 60.771,11.251 57.679,14.406L5.714,67.416C4.147,69.014 2.074,69.816 0,69.816" style="fill:rgb(253,203,1);fill-rule:nonzero;"/>
        </g>
        <g transform="matrix(1,0,0,1,557.852,78.7923)">
            <path d="M0,106.57C-2.021,106.57 -4.042,105.809 -5.6,104.283C-8.755,101.19 -8.805,96.125 -5.712,92.97L82.281,3.206C85.374,0.05 90.439,0 93.594,3.093C96.749,6.186 96.799,11.251 93.707,14.406L5.713,104.17C4.147,105.768 2.074,106.57 0,106.57" style="fill:rgb(0,235,234);fill-rule:nonzero;"/>
        </g>
        <g transform="matrix(1,0,0,1,1368.5,873.783)">
            <path d="M0,69.224C-2.021,69.224 -4.042,68.463 -5.6,66.937C-8.755,63.844 -8.805,58.779 -5.712,55.623L45.672,3.205C48.764,0.051 53.829,0 56.985,3.093C60.141,6.186 60.19,11.251 57.098,14.407L5.714,66.825C4.147,68.422 2.074,69.224 0,69.224" style="fill:rgb(0,235,234);fill-rule:nonzero;"/>
        </g>
        <g transform="matrix(1,0,0,1,557.852,166.953)">
            <path d="M0,130.771C-2.021,130.771 -4.042,130.01 -5.6,128.484C-8.755,125.391 -8.805,120.326 -5.712,117.171L106.005,3.205C109.098,0.049 114.163,0 117.318,3.092C120.473,6.185 120.523,11.25 117.431,14.405L5.713,128.371C4.147,129.969 2.074,130.771 0,130.771" style="fill:rgb(0,235,234);fill-rule:nonzero;"/>
        </g>
        <g transform="matrix(1,0,0,1,529.238,378.768)">
            <path d="M0,244.794C-2.021,244.794 -4.042,244.033 -5.6,242.507C-8.755,239.414 -8.805,234.349 -5.712,231.193L217.778,3.206C220.871,0.05 225.936,0 229.091,3.093C232.246,6.186 232.296,11.251 229.204,14.406L5.713,242.395C4.147,243.992 2.074,244.794 0,244.794" style="fill:rgb(253,203,1);fill-rule:nonzero;"/>
        </g>
        <g transform="matrix(1,0,0,1,738.566,885.103)">
            <path d="M0,158.819C-2.021,158.819 -4.042,158.058 -5.6,156.532C-8.755,153.439 -8.805,148.374 -5.712,145.218L133.499,3.205C136.592,0.049 141.657,0 144.812,3.092C147.967,6.185 148.018,11.251 144.925,14.406L5.713,156.42C4.147,158.017 2.074,158.819 0,158.819" style="fill:rgb(253,203,1);fill-rule:nonzero;"/>
        </g>
        <g transform="matrix(1,0,0,1,1630.15,925.026)">
            <path d="M0,136.439C-2.021,136.439 -4.042,135.678 -5.6,134.152C-8.754,131.059 -8.805,125.994 -5.712,122.838L111.56,3.205C114.652,0.051 119.718,0 122.873,3.092C126.027,6.185 126.078,11.251 122.985,14.406L5.714,134.04C4.147,135.637 2.074,136.439 0,136.439" style="fill:rgb(246,2,97);fill-rule:nonzero;"/>
        </g>
        <g transform="matrix(1,0,0,1,30.2036,551.438)">
            <path d="M0,106.165C-2.021,106.165 -4.042,105.404 -5.6,103.878C-8.755,100.785 -8.805,95.72 -5.712,92.564L81.885,3.204C84.979,0.05 90.043,0 93.198,3.092C96.354,6.185 96.404,11.25 93.311,14.405L5.713,103.766C4.147,105.363 2.074,106.165 0,106.165" style="fill:rgb(253,203,1);fill-rule:nonzero;"/>
        </g>
        <g transform="matrix(1,0,0,1,294.371,526.259)">
            <path d="M0,244.792C-2.021,244.792 -4.042,244.031 -5.6,242.505C-8.755,239.412 -8.805,234.347 -5.712,231.191L217.778,3.205C220.871,0.049 225.936,0 229.091,3.092C232.246,6.185 232.296,11.25 229.204,14.405L5.713,242.393C4.147,243.99 2.074,244.792 0,244.792" style="fill:rgb(246,2,97);fill-rule:nonzero;"/>
        </g>
        <g transform="matrix(1,0,0,1,989.52,26.9794)">
            <path d="M0,244.794C-2.021,244.794 -4.042,244.033 -5.6,242.507C-8.755,239.414 -8.805,234.349 -5.712,231.194L217.778,3.206C220.871,0.052 225.936,0 229.092,3.093C232.247,6.186 232.297,11.251 229.204,14.406L5.714,242.394C4.147,243.992 2.074,244.794 0,244.794" style="fill:rgb(0,235,234);fill-rule:nonzero;"/>
        </g>
        <g transform="matrix(1,0,0,1,1188.7,697.036)">
            <path d="M0,244.794C-2.021,244.794 -4.042,244.033 -5.6,242.507C-8.755,239.414 -8.805,234.349 -5.712,231.193L217.778,3.205C220.871,0.051 225.936,0 229.092,3.093C232.247,6.186 232.297,11.251 229.204,14.406L5.714,242.395C4.147,243.992 2.074,244.794 0,244.794" style="fill:rgb(0,235,234);fill-rule:nonzero;"/>
        </g>
        <g transform="matrix(1,0,0,1,1431.94,143.929)">
            <path d="M0,244.794C-2.021,244.794 -4.042,244.033 -5.6,242.507C-8.755,239.414 -8.805,234.349 -5.712,231.194L217.778,3.206C220.871,0.051 225.936,0 229.092,3.093C232.247,6.186 232.297,11.251 229.204,14.406L5.714,242.394C4.147,243.992 2.074,244.794 0,244.794" style="fill:rgb(0,235,234);fill-rule:nonzero;"/>
        </g>
        <g transform="matrix(-0.70003,0.714113,0.714113,0.70003,366.643,209.394)">
            <path d="M-76.29,-32.047L13.461,-32.047" style="fill:none;fill-rule:nonzero;"/>
        </g>
        <g transform="matrix(1,0,0,1,334.334,124.775)">
            <path d="M0,78.799C-1.768,78.799 -3.537,78.133 -4.9,76.798C-7.661,74.091 -7.705,69.659 -4.999,66.899L57.83,2.805C60.536,0.044 64.967,0 67.729,2.707C70.49,5.413 70.534,9.845 67.828,12.606L5,76.699C3.628,78.097 1.815,78.799 0,78.799" style="fill:rgb(0,235,234);fill-rule:nonzero;"/>
        </g>
        <g transform="matrix(1,0,0,1,250.482,218.851)">
            <path d="M0,279.631C-1.779,279.631 -3.558,278.957 -4.923,277.608C-7.671,274.889 -7.695,270.457 -4.977,267.708L257.087,2.772C259.806,0.023 264.238,0 266.986,2.718C269.735,5.437 269.759,9.869 267.04,12.617L4.977,277.554C3.607,278.938 1.804,279.631 0,279.631" style="fill:rgb(246,2,97);fill-rule:nonzero;"/>
        </g>
        <g transform="matrix(-0.704315,0.709887,0.709887,0.704315,254.87,551.655)">
            <path d="M-223.426,-93.062L38.763,-93.062" style="fill:none;fill-rule:nonzero;"/>
        </g>
        <g transform="matrix(1,0,0,1,161.506,319.812)">
            <path d="M0,200.815C-1.782,200.815 -3.565,200.139 -4.93,198.784C-7.675,196.061 -7.692,191.629 -4.969,188.885L179.694,2.761C182.418,0.016 186.85,0 189.593,2.722C192.338,5.445 192.355,9.877 189.632,12.621L4.969,198.745C3.601,200.125 1.8,200.815 0,200.815" style="fill:rgb(0,235,234);fill-rule:nonzero;"/>
        </g>
        <g transform="matrix(1,0,0,1,365.749,32.0851)">
            <path d="M0,58.494C-2.021,58.494 -4.042,57.733 -5.6,56.207C-8.755,53.114 -8.805,48.049 -5.712,44.894L35.153,3.205C38.246,0.051 43.312,0 46.466,3.093C49.622,6.185 49.672,11.25 46.579,14.406L5.713,56.094C4.147,57.692 2.074,58.494 0,58.494" style="fill:rgb(246,2,97);fill-rule:nonzero;"/>
        </g>
        <g transform="matrix(1,0,0,1,516.986,763.56)">
            <path d="M0,58.494C-2.021,58.494 -4.042,57.733 -5.6,56.207C-8.755,53.114 -8.805,48.049 -5.712,44.893L35.153,3.205C38.246,0.05 43.312,0 46.466,3.093C49.622,6.185 49.672,11.251 46.579,14.406L5.713,56.095C4.147,57.692 2.074,58.494 0,58.494" style="fill:rgb(0,235,234);fill-rule:nonzero;"/>
        </g>
        <g transform="matrix(1,0,0,1,117.781,111.403)">
            <path d="M0,58.495C-2.021,58.495 -4.043,57.734 -5.6,56.208C-8.755,53.115 -8.805,48.05 -5.712,44.895L35.153,3.206C38.246,0.052 43.311,0 46.466,3.094C49.622,6.186 49.672,11.251 46.579,14.407L5.713,56.095C4.147,57.693 2.074,58.495 0,58.495" style="fill:rgb(246,2,97);fill-rule:nonzero;"/>
        </g>
        <g transform="matrix(1,0,0,1,218.622,20.8722)">
            <path d="M0,58.494C-2.021,58.494 -4.043,57.733 -5.6,56.207C-8.755,53.114 -8.805,48.049 -5.712,44.894L35.153,3.205C38.246,0.051 43.311,0 46.466,3.093C49.622,6.185 49.672,11.25 46.579,14.406L5.713,56.094C4.147,57.692 2.074,58.494 0,58.494" style="fill:rgb(246,2,97);fill-rule:nonzero;"/>
        </g>
        <g transform="matrix(1,0,0,1,732.294,134.878)">
            <path d="M0,58.494C-2.021,58.494 -4.043,57.733 -5.6,56.207C-8.755,53.114 -8.805,48.049 -5.712,44.894L35.153,3.205C38.246,0.051 43.312,0 46.466,3.093C49.622,6.185 49.672,11.25 46.579,14.406L5.713,56.094C4.147,57.692 2.074,58.494 0,58.494" style="fill:rgb(253,203,1);fill-rule:nonzero;"/>
        </g>
        <g transform="matrix(1,0,0,1,905.338,390.915)">
            <path d="M0,58.494C-2.021,58.494 -4.043,57.733 -5.6,56.207C-8.755,53.114 -8.805,48.049 -5.712,44.894L35.153,3.205C38.246,0.051 43.312,0 46.466,3.093C49.622,6.185 49.672,11.25 46.579,14.406L5.713,56.094C4.147,57.692 2.074,58.494 0,58.494" style="fill:rgb(246,2,97);fill-rule:nonzero;"/>
        </g>
        <g transform="matrix(1,0,0,1,905.338,166.924)">
            <path d="M0,58.494C-2.021,58.494 -4.043,57.733 -5.6,56.207C-8.755,53.114 -8.805,48.049 -5.712,44.894L35.153,3.205C38.246,0.051 43.312,0 46.466,3.093C49.622,6.185 49.672,11.25 46.579,14.406L5.713,56.094C4.147,57.692 2.074,58.494 0,58.494" style="fill:rgb(246,2,97);fill-rule:nonzero;"/>
        </g>
        <g transform="matrix(1,0,0,1,905.338,37.3952)">
            <path d="M0,58.494C-2.021,58.494 -4.043,57.733 -5.6,56.207C-8.755,53.114 -8.805,48.049 -5.712,44.894L35.153,3.205C38.246,0.051 43.312,0 46.466,3.093C49.622,6.185 49.672,11.25 46.579,14.406L5.713,56.094C4.147,57.692 2.074,58.494 0,58.494" style="fill:rgb(246,2,97);fill-rule:nonzero;"/>
        </g>
        <g transform="matrix(1,0,0,1,869.299,215.735)">
            <path d="M0,109.332C-2.021,109.332 -4.042,108.571 -5.6,107.045C-8.755,103.952 -8.805,98.887 -5.712,95.732L84.988,3.206C88.081,0.05 93.145,0 96.301,3.093C99.457,6.186 99.506,11.25 96.414,14.406L5.713,106.932C4.147,108.53 2.074,109.332 0,109.332" style="fill:rgb(253,203,1);fill-rule:nonzero;"/>
        </g>
        <g transform="matrix(1,0,0,1,673.299,559.735)">
            <path d="M0,109.332C-2.021,109.332 -4.042,108.571 -5.6,107.045C-8.755,103.952 -8.805,98.887 -5.712,95.731L84.988,3.205C88.081,0.052 93.146,0 96.301,3.093C99.456,6.186 99.506,11.251 96.414,14.406L5.713,106.933C4.147,108.53 2.074,109.332 0,109.332" style="fill:rgb(253,203,1);fill-rule:nonzero;"/>
        </g>
        <g transform="matrix(1,0,0,1,266.252,821.977)">
            <path d="M0,109.332C-2.021,109.332 -4.042,108.571 -5.6,107.045C-8.755,103.952 -8.805,98.887 -5.712,95.731L84.988,3.205C88.08,0.052 93.146,0 96.301,3.093C99.456,6.186 99.506,11.251 96.414,14.406L5.713,106.933C4.147,108.53 2.074,109.332 0,109.332" style="fill:rgb(253,203,1);fill-rule:nonzero;"/>
        </g>
        <g transform="matrix(1,0,0,1,600.495,934.172)">
            <path d="M0,109.332C-2.021,109.332 -4.042,108.571 -5.6,107.045C-8.755,103.952 -8.805,98.887 -5.712,95.731L84.988,3.205C88.081,0.052 93.146,0 96.301,3.093C99.456,6.186 99.506,11.251 96.414,14.406L5.713,106.933C4.147,108.53 2.074,109.332 0,109.332" style="fill:rgb(246,2,97);fill-rule:nonzero;"/>
        </g>
        <g transform="matrix(1,0,0,1,1545.57,132.248)">
            <path d="M0,58.494C-2.021,58.494 -4.042,57.733 -5.6,56.207C-8.755,53.114 -8.805,48.049 -5.712,44.894L35.154,3.205C38.247,0.051 43.312,0 46.468,3.093C49.623,6.185 49.673,11.251 46.58,14.406L5.714,56.094C4.147,57.692 2.074,58.494 0,58.494" style="fill:rgb(246,2,97);fill-rule:nonzero;"/>
        </g>
        <g transform="matrix(1,0,0,1,1503.5,530.593)">
            <path d="M0,58.495C-2.021,58.495 -4.042,57.734 -5.6,56.208C-8.755,53.115 -8.805,48.05 -5.712,44.894L35.154,3.206C38.247,0.053 43.312,0 46.468,3.094C49.623,6.186 49.673,11.252 46.58,14.407L5.714,56.096C4.147,57.693 2.074,58.495 0,58.495" style="fill:rgb(246,2,97);fill-rule:nonzero;"/>
        </g>
        <g transform="matrix(1,0,0,1,1139.08,446.498)">
            <path d="M0,58.494C-2.021,58.494 -4.042,57.733 -5.6,56.207C-8.755,53.114 -8.805,48.049 -5.712,44.894L35.154,3.206C38.247,0.052 43.312,0 46.468,3.094C49.623,6.186 49.673,11.252 46.58,14.407L5.714,56.094C4.147,57.692 2.074,58.494 0,58.494" style="fill:rgb(0,235,234);fill-rule:nonzero;"/>
        </g>
        <g transform="matrix(1,0,0,1,839.93,106.829)">
            <path d="M0,109.332C-2.021,109.332 -4.042,108.571 -5.6,107.045C-8.755,103.952 -8.805,98.887 -5.712,95.732L84.988,3.206C88.081,0.05 93.146,0 96.301,3.093C99.456,6.186 99.506,11.25 96.414,14.406L5.713,106.932C4.147,108.53 2.074,109.332 0,109.332" style="fill:rgb(253,203,1);fill-rule:nonzero;"/>
        </g>
        <g transform="matrix(1,0,0,1,1076.96,248.708)">
            <path d="M0,244.793C-2.021,244.793 -4.042,244.032 -5.6,242.506C-8.755,239.413 -8.805,234.348 -5.712,231.193L217.778,3.205C220.871,0.051 225.936,0 229.092,3.092C232.247,6.185 232.297,11.25 229.204,14.405L5.714,242.393C4.147,243.991 2.074,244.793 0,244.793" style="fill:rgb(253,203,1);fill-rule:nonzero;"/>
        </g>
        <g transform="matrix(-0.704313,0.709889,0.709889,0.704313,1356.24,702.244)">
            <path d="M-223.426,-93.063L38.763,-93.063" style="fill:none;fill-rule:nonzero;"/>
        </g>
        <g transform="matrix(1,0,0,1,1262.87,470.398)">
            <path d="M0,200.818C-1.782,200.818 -3.565,200.141 -4.931,198.787C-7.675,196.064 -7.692,191.632 -4.969,188.887L179.693,2.763C182.417,0.018 186.849,0 189.594,2.724C192.338,5.447 192.355,9.879 189.632,12.623L4.969,198.749C3.601,200.128 1.801,200.818 0,200.818" style="fill:rgb(0,235,234);fill-rule:nonzero;"/>
        </g>
        <g transform="matrix(1,0,0,1,1118.65,711.185)">
            <path d="M0,58.494C-2.021,58.494 -4.042,57.733 -5.6,56.207C-8.755,53.114 -8.805,48.049 -5.712,44.893L35.154,3.205C38.247,0.051 43.312,0 46.468,3.093C49.623,6.185 49.673,11.251 46.58,14.406L5.714,56.095C4.147,57.692 2.074,58.494 0,58.494" style="fill:rgb(246,2,97);fill-rule:nonzero;"/>
        </g>
        <g transform="matrix(1,0,0,1,537.418,690.341)">
            <path d="M0,58.494C-2.021,58.494 -4.042,57.733 -5.6,56.207C-8.755,53.114 -8.805,48.049 -5.712,44.893L35.154,3.205C38.247,0.051 43.312,0 46.467,3.093C49.622,6.185 49.672,11.251 46.58,14.406L5.713,56.095C4.147,57.692 2.074,58.494 0,58.494" style="fill:rgb(246,2,97);fill-rule:nonzero;"/>
        </g>
        <g transform="matrix(1,0,0,1,1615.25,275.564)">
            <path d="M0,58.494C-2.021,58.494 -4.042,57.733 -5.6,56.207C-8.754,53.114 -8.805,48.049 -5.712,44.894L35.153,3.205C38.246,0.051 43.311,0 46.467,3.093C49.621,6.185 49.672,11.25 46.579,14.406L5.714,56.094C4.147,57.692 2.074,58.494 0,58.494" style="fill:rgb(0,235,234);fill-rule:nonzero;"/>
        </g>
        <g transform="matrix(1,0,0,1,764.911,20.8722)">
            <path d="M0,58.494C-2.021,58.494 -4.042,57.733 -5.6,56.207C-8.755,53.114 -8.805,48.049 -5.712,44.894L35.153,3.205C38.246,0.051 43.311,0 46.466,3.093C49.621,6.185 49.671,11.25 46.579,14.406L5.713,56.094C4.147,57.692 2.074,58.494 0,58.494" style="fill:rgb(0,235,234);fill-rule:nonzero;"/>
        </g>
        <g transform="matrix(1,0,0,1,117.781,959.591)">
            <path d="M0,58.494C-2.021,58.494 -4.042,57.733 -5.6,56.207C-8.755,53.114 -8.805,48.049 -5.712,44.893L35.153,3.205C38.247,0.051 43.312,0 46.466,3.093C49.622,6.185 49.672,11.251 46.579,14.406L5.713,56.095C4.147,57.692 2.074,58.494 0,58.494" style="fill:rgb(0,235,234);fill-rule:nonzero;"/>
        </g>
        <g transform="matrix(1,0,0,1,1110.26,966.07)">
            <path d="M0,58.494C-2.021,58.494 -4.042,57.733 -5.6,56.207C-8.754,53.114 -8.805,48.049 -5.712,44.893L35.153,3.205C38.246,0.052 43.311,0 46.467,3.093C49.621,6.185 49.672,11.251 46.579,14.406L5.714,56.095C4.147,57.692 2.074,58.494 0,58.494" style="fill:rgb(0,235,234);fill-rule:nonzero;"/>
        </g>
        <g transform="matrix(1,0,0,1,970.832,257.921)">
            <path d="M0,191.784C-2.021,191.784 -4.042,191.023 -5.6,189.497C-8.755,186.404 -8.805,181.339 -5.712,178.184L165.813,3.206C168.906,0.052 173.971,0 177.127,3.093C180.282,6.186 180.332,11.251 177.239,14.406L5.714,189.384C4.147,190.982 2.074,191.784 0,191.784" style="fill:rgb(253,203,1);fill-rule:nonzero;"/>
        </g>
        <g transform="matrix(-0.700028,0.714115,0.714115,0.700028,806.81,507.628)">
            <path d="M-88.093,-37.004L15.544,-37.005" style="fill:none;fill-rule:nonzero;"/>
        </g>
        <g transform="matrix(1,0,0,1,769.502,411.11)">
            <path d="M0,88.714C-1.768,88.714 -3.537,88.048 -4.9,86.713C-7.661,84.006 -7.705,79.574 -4.999,76.814L67.55,2.805C70.256,0.045 74.688,0 77.45,2.706C80.21,5.413 80.254,9.845 77.548,12.606L5,86.614C3.628,88.012 1.815,88.714 0,88.714" style="fill:rgb(0,235,234);fill-rule:nonzero;"/>
        </g>
        <g transform="matrix(1,0,0,1,1584.8,920.987)">
            <path d="M0,109.333C-2.021,109.333 -4.042,108.572 -5.6,107.046C-8.754,103.953 -8.805,98.888 -5.712,95.732L84.988,3.206C88.081,0.053 93.146,0 96.302,3.094C99.457,6.187 99.507,11.252 96.414,14.407L5.714,106.934C4.147,108.531 2.074,109.333 0,109.333" style="fill:rgb(253,203,1);fill-rule:nonzero;"/>
        </g>
        <g transform="matrix(1,0,0,1,1622.39,6.666)">
            <path d="M0,109.332C-2.021,109.332 -4.043,108.571 -5.601,107.045C-8.756,103.952 -8.806,98.887 -5.713,95.732L84.987,3.206C88.08,0.051 93.145,0 96.301,3.093C99.455,6.186 99.506,11.25 96.413,14.406L5.713,106.932C4.146,108.53 2.073,109.332 0,109.332" style="fill:rgb(253,203,1);fill-rule:nonzero;"/>
        </g>
        <g transform="matrix(-0.70003,0.714113,0.714113,0.70003,106.311,776.06)">
            <path d="M-76.29,-32.047L13.461,-32.047" style="fill:none;fill-rule:nonzero;"/>
        </g>
        <g transform="matrix(1,0,0,1,74.0024,691.441)">
            <path d="M0,78.798C-1.768,78.798 -3.537,78.132 -4.9,76.797C-7.661,74.09 -7.705,69.658 -4.998,66.898L57.831,2.805C60.537,0.043 64.968,0 67.73,2.706C70.491,5.413 70.535,9.845 67.828,12.606L4.999,76.698C3.628,78.097 1.815,78.798 0,78.798" style="fill:rgb(0,235,234);fill-rule:nonzero;"/>
        </g>
        <g transform="matrix(-0.700036,0.714108,0.714108,0.700036,1566.89,782.754)">
            <path d="M-76.29,-32.046L13.461,-32.046" style="fill:none;fill-rule:nonzero;"/>
        </g>
        <g transform="matrix(1,0,0,1,1534.58,698.138)">
            <path d="M0,78.796C-1.769,78.796 -3.538,78.13 -4.9,76.795C-7.661,74.088 -7.705,69.656 -4.999,66.896L57.83,2.804C60.538,0.042 64.97,0 67.729,2.705C70.49,5.412 70.534,9.844 67.828,12.605L4.999,76.696C3.628,78.095 1.814,78.796 0,78.796" style="fill:rgb(0,235,234);fill-rule:nonzero;"/>
        </g>
        <g transform="matrix(-0.700036,0.714108,0.714108,0.700036,1054.82,127.446)">
            <path d="M-76.29,-32.046L13.461,-32.046" style="fill:none;fill-rule:nonzero;"/>
        </g>
        <g transform="matrix(1,0,0,1,1022.51,42.828)">
            <path d="M0,78.797C-1.769,78.797 -3.538,78.131 -4.9,76.796C-7.661,74.089 -7.705,69.657 -4.999,66.897L57.83,2.805C60.537,0.044 64.97,0 67.729,2.707C70.49,5.413 70.534,9.845 67.828,12.606L4.999,76.697C3.628,78.095 1.814,78.797 0,78.797" style="fill:rgb(0,235,234);fill-rule:nonzero;"/>
        </g>
        <g transform="matrix(-0.70003,0.714113,0.714113,0.70003,764.894,715.43)">
            <path d="M-76.29,-32.047L13.461,-32.047" style="fill:none;fill-rule:nonzero;"/>
        </g>
        <g transform="matrix(1,0,0,1,732.585,630.812)">
            <path d="M0,78.797C-1.768,78.797 -3.537,78.131 -4.9,76.796C-7.661,74.089 -7.705,69.657 -4.998,66.897L57.831,2.804C60.537,0.042 64.968,0 67.73,2.705C70.491,5.412 70.535,9.844 67.828,12.605L4.999,76.697C3.628,78.096 1.815,78.797 0,78.797" style="fill:rgb(0,235,234);fill-rule:nonzero;"/>
        </g>
        <g transform="matrix(1,0,0,1,1652.96,349.153)">
            <path d="M0,89.909C-2.021,89.909 -4.042,89.148 -5.6,87.622C-8.754,84.529 -8.805,79.464 -5.712,76.309L65.948,3.206C69.041,0.051 74.105,0 77.262,3.093C80.416,6.186 80.467,11.251 77.374,14.406L5.714,87.509C4.147,89.107 2.074,89.909 0,89.909" style="fill:rgb(253,203,1);fill-rule:nonzero;"/>
        </g>
        <g transform="matrix(1,0,0,1,1799.62,980.436)">
            <path d="M0,58.494C-2.021,58.494 -4.042,57.733 -5.6,56.207C-8.754,53.114 -8.805,48.049 -5.712,44.893L35.153,3.205C38.246,0.052 43.312,0 46.467,3.093C49.621,6.185 49.672,11.251 46.579,14.406L5.714,56.095C4.147,57.692 2.074,58.494 0,58.494" style="fill:rgb(0,235,234);fill-rule:nonzero;"/>
        </g>
    </g>
</svg>
